<svg
    xmlns="http://www.w3.org/2000/svg"
    viewBox="0 0 253 256"
    >
  <path id="path" fill="#e79317" 
    d="M40.95 113.89c-2.7-0.58-4.42-3.24-3.84-5.94 7.58-35.33 93.71-56.04 134.23-44.77 9.17 2.55 20.43 4.03 28.3 12.39 9.03 9.59 19.46 34.23 2.64 62.02-7.75 12.79-20.88 19.89-33.07 25.9-22.89 11.26-37.54 9.4-42.37 9.91 0.4 4.38 4.73 17.91 9.97 36.23 0.76 2.65-0.78 5.42-3.44 6.18-2.65 0.76-5.42-0.78-6.18-3.44-9.43-33.02-12.97-40.45-8.33-45.82 6.07-7.02 17.57 1.92 45.93-12.04 11.47-5.64 22.67-11.76 28.93-22.1 14.53-24 4.51-43.74-1.36-49.98-5.59-5.94-14.74-7.12-23.7-9.61-37.88-10.54-116.04 10.53-121.77 37.23-0.58 2.7-3.24 4.42-5.94 3.84z"
    />
</svg>